<?xml version="1.0" encoding="utf-8"?>
<!-- Generator: Adobe Illustrator 26.0.3, SVG Export Plug-In . SVG Version: 6.00 Build 0)  -->
<svg version="1.1" id="Layer_1" xmlns="http://www.w3.org/2000/svg" xmlns:xlink="http://www.w3.org/1999/xlink" x="0px" y="0px"
	 width="40px" height="40px" viewBox="0 0 40 40" style="enable-background:new 0 0 40 40;" xml:space="preserve">
<style type="text/css">
	.st0{fill:#6C80F4;}
	.st1{fill:#FFFFFF;}
</style>
<path class="st0" d="M36,40H4c-2.2,0-4-1.8-4-4V4c0-2.2,1.8-4,4-4h32c2.2,0,4,1.8,4,4v32C40,38.2,38.2,40,36,40z"/>
<path class="st1" d="M25,11.3c-2,0-3.7,0.8-5,2.1c-1.3-1.3-3-2.1-5-2.1c-3.9,0-7,3.1-7,7v8.3c0,1.1,0.9,2,2,2s2-0.9,2-2v-8.3
	c0-1.7,1.3-3,3-3s3,1.3,3,3v8.3c0,1.1,0.9,2,2,2s2-0.9,2-2v-8.3c0-1.7,1.3-3,3-3s3,1.3,3,3v8.3c0,1.1,0.9,2,2,2s2-0.9,2-2v-8.3
	C32,14.5,28.9,11.3,25,11.3z"/>
</svg>
