<?xml version="1.0" encoding="utf-8"?>
<!-- Generator: Adobe Illustrator 26.2.1, SVG Export Plug-In . SVG Version: 6.00 Build 0)  -->
<svg version="1.1" id="Layer_1" xmlns="http://www.w3.org/2000/svg" xmlns:xlink="http://www.w3.org/1999/xlink" x="0px" y="0px"
	 width="160px" height="32px" viewBox="0 0 160 32" style="enable-background:new 0 0 160 32;" xml:space="preserve">
<style type="text/css">
	.st0{fill:none;stroke:#FFFFFF;stroke-width:2;stroke-linecap:round;stroke-linejoin:round;stroke-miterlimit:10;}
</style>
<path class="st0" d="M10.1,11H5.9C5.4,11,5,10.6,5,10.1V5.9C5,5.4,5.4,5,5.9,5h4.3C10.6,5,11,5.4,11,5.9v4.3
	C11,10.6,10.6,11,10.1,11z"/>
<path class="st0" d="M44,8L44,8c0,2.2-1.8,4-4,4l0,0"/>
<path class="st0" d="M36,8L36,8c0-2.2,1.8-4,4-4l0,0"/>
<polyline class="st0" points="40,2 42,4 40,6 "/>
<polyline class="st0" points="40,14 38,12 40,10 "/>
<path class="st0" d="M60,8c0,2.2-1.8,4-4,4s-4-1.8-4-4s1.8-4,4-4"/>
<polyline class="st0" points="56,2 58,4 56,6 "/>
<path class="st0" d="M21,10.7V5.3c0-0.5,0.6-0.8,1-0.5l3.3,2.7c0.3,0.3,0.3,0.7,0,1L22,11.2C21.6,11.5,21,11.2,21,10.7z"/>
<polyline class="st0" points="74,7 72,9 70,7 "/>
<path class="st0" d="M93,10v1.5c0,0.8-0.7,1.5-1.5,1.5h-7.1c-0.8,0-1.5-0.7-1.5-1.5V10"/>
<polyline class="st0" points="90,7 88,9 86,7 "/>
<line class="st0" x1="88" y1="3.1" x2="88" y2="9"/>
<line class="st0" x1="91" y1="3" x2="85" y2="3"/>
<polygon class="st0" points="104,3 99,10 104,10 104,13 109,6 104,6 "/>
<polyline class="st0" points="117,10 115,8 117,6 "/>
<polyline class="st0" points="123,6 125,8 123,10 "/>
<line class="st0" x1="123" y1="8" x2="117" y2="8"/>
<circle class="st0" cx="135" cy="7" r="3"/>
<line class="st0" x1="139" y1="11" x2="138" y2="10"/>
<path class="st0" d="M154.8,5.2c1.6,1.6,1.6,4.1,0,5.7s-4.1,1.6-5.7,0s-1.6-4.1,0-5.7"/>
<line class="st0" x1="152" y1="4" x2="152" y2="7"/>
<path class="st0" d="M5,27l6-6"/>
<path class="st0" d="M5,21l6,6"/>
<path class="st0" d="M28,22c0-1.5-0.8-2.8-2-3.4V21h-4v-2.4c-1.2,0.7-2,2-2,3.4s0.8,2.8,2,3.4V27c0,1.1,0.9,2,2,2l0,0
	c1.1,0,2-0.9,2-2v-1.6C27.2,24.8,28,23.5,28,22z"/>
<path class="st0" d="M45,24c0,2.8-2.2,5-5,5s-5-2.2-5-5s2.2-5,5-5"/>
<line class="st0" x1="40" y1="24" x2="44" y2="20"/>
<circle class="st0" cx="40" cy="24" r="1"/>
<path class="st0" d="M57.7,29h-3.5c-0.7,0-1.3-0.6-1.3-1.3V22h6v5.7C59,28.4,58.4,29,57.7,29z"/>
<rect x="52" y="19" class="st0" width="8" height="3"/>
<line class="st0" x1="56" y1="26" x2="56" y2="22"/>
<line class="st0" x1="55" y1="18" x2="57" y2="18"/>
<polyline class="st0" points="70,25 71,26 74,23 "/>
<line class="st0" x1="86" y1="26" x2="90" y2="22"/>
<line class="st0" x1="86" y1="22" x2="90" y2="26"/>
<path class="st0" d="M74.1,30H70c-2.2,0-3.9-1.8-3.9-3.9V22c0-2.2,1.8-3.9,3.9-3.9h4.1c2.2,0,3.9,1.8,3.9,3.9v4.1
	C78,28.2,76.2,30,74.1,30z"/>
<path class="st0" d="M90.1,30H86c-2.2,0-3.9-1.8-3.9-3.9V22c0-2.2,1.8-3.9,3.9-3.9h4.1c2.2,0,3.9,1.8,3.9,3.9v4.1
	C94,28.2,92.2,30,90.1,30z"/>
<path class="st0" d="M110,23.5c0,0-2.7,3.5-6,3.5s-6-3.5-6-3.5s2.7-3.5,6-3.5S110,23.5,110,23.5z"/>
<circle class="st0" cx="104" cy="22" r="2"/>
<path class="st0" d="M126,23.5c0,0-2.7,3.5-6,3.5s-6-3.5-6-3.5s2.7-3.5,6-3.5S126,23.5,126,23.5z"/>
</svg>
