<?xml version="1.0" encoding="utf-8"?>
<!-- Generator: Adobe Illustrator 26.2.1, SVG Export Plug-In . SVG Version: 6.00 Build 0)  -->
<svg version="1.1" xmlns="http://www.w3.org/2000/svg" xmlns:xlink="http://www.w3.org/1999/xlink" x="0px" y="0px" width="550px"
	 height="100px" viewBox="0 0 550 100" style="enable-background:new 0 0 550 100;" xml:space="preserve">
<style type="text/css">
	.st0{display:none;}
	.st1{display:inline;}
	.st2{fill:#3B4156;}
	.st3{fill:none;stroke:#FFFFFF;stroke-width:2;stroke-linecap:round;stroke-linejoin:round;stroke-miterlimit:10;}
	.st4{fill:#FFFFFF;}
	.st5{fill:none;stroke:#FFFFFF;stroke-width:2;stroke-linecap:round;stroke-linejoin:round;stroke-miterlimit:9.9996;}
</style>
<g id="Layer_2" class="st0">
	<g id="Layer_2_00000122700050134038943850000004722808010878348971_" class="st1">
		<rect class="st2" width="550" height="100"/>
	</g>
</g>
<g id="Layer_3">
</g>
<g id="Layer_1">
	<path class="st3" d="M91,39H59c-1.1,0-2-0.9-2-2v-7c0-1.1,0.9-2,2-2h32c1.1,0,2,0.9,2,2v7C93,38.1,92.1,39,91,39z"/>
	<polyline class="st3" points="57,30 63,10 87,10 93,30 	"/>
	<circle class="st4" cx="87.5" cy="33.5" r="1.5"/>
	<circle class="st4" cx="82.5" cy="33.5" r="1.5"/>
	<circle class="st4" cx="77.5" cy="33.5" r="1.5"/>
	<line class="st3" x1="61" y1="32" x2="69" y2="32"/>
	<line class="st3" x1="61" y1="35" x2="69" y2="35"/>
	<line class="st3" x1="88" y1="14" x2="62" y2="14"/>
	<line class="st3" x1="86" y1="17" x2="78" y2="17"/>
	<line class="st3" x1="87" y1="20" x2="80" y2="20"/>
	<line class="st3" x1="160" y1="42" x2="160" y2="39"/>
	<line class="st3" x1="164" y1="42" x2="164" y2="39"/>
	<line class="st3" x1="168" y1="42" x2="168" y2="39"/>
	<path class="st3" d="M191,11h-6v3h-20v-3h-6c-1.1,0-2,0.9-2,2v24c0,1.1,0.9,2,2,2h32c1.1,0,2-0.9,2-2V13C193,11.9,192.1,11,191,11z
		"/>
	<circle class="st4" cx="161" cy="15" r="1"/>
	<circle class="st4" cx="189" cy="15" r="1"/>
	<circle class="st4" cx="161" cy="35" r="1"/>
	<circle class="st4" cx="189" cy="35" r="1"/>
	<circle class="st4" cx="181" cy="30" r="1"/>
	<circle class="st4" cx="185" cy="30" r="1"/>
	<rect x="180" y="19" class="st3" width="6" height="8"/>
	<line class="st3" x1="161" y1="19" x2="176" y2="19"/>
	<line class="st3" x1="161" y1="23" x2="176" y2="23"/>
	<line class="st3" x1="185" y1="33" x2="185" y2="38"/>
	<line class="st3" x1="181" y1="33" x2="181" y2="38"/>
	<line class="st3" x1="190" y1="19" x2="193" y2="19"/>
	<line class="st3" x1="190" y1="23" x2="193" y2="23"/>
	<line class="st3" x1="190" y1="27" x2="193" y2="27"/>
	<line class="st3" x1="161" y1="27" x2="176" y2="27"/>
	<line class="st3" x1="189" y1="9" x2="189" y2="11"/>
	<path class="st3" d="M240,36h-30c-1.7,0-3-1.3-3-3V11c0-1.7,1.3-3,3-3h30c1.7,0,3,1.3,3,3v22C243,34.7,241.7,36,240,36z"/>
	<line class="st3" x1="210" y1="43" x2="239" y2="43"/>
	<path class="st3" d="M219,36c0,3.9-2.7,7-6,7"/>
	<path class="st3" d="M230,36c0,3.9,2.7,7,6,7"/>
	<line class="st3" x1="207" y1="12" x2="243" y2="12"/>
	<line class="st3" x1="207" y1="32" x2="243" y2="32"/>
	<line class="st3" x1="211" y1="16" x2="214" y2="16"/>
	<line class="st3" x1="211" y1="20" x2="219" y2="20"/>
	<line class="st3" x1="211" y1="24" x2="215" y2="24"/>
	<line class="st3" x1="211" y1="28" x2="222" y2="28"/>
	<line class="st3" x1="218" y1="16" x2="229" y2="16"/>
	<line class="st3" x1="223" y1="20" x2="227" y2="20"/>
	<line class="st3" x1="219" y1="24" x2="231" y2="24"/>
	<line class="st3" x1="226" y1="28" x2="228" y2="28"/>
	<path class="st3" d="M121.1,18.8c-0.1-0.3-0.1-0.6-0.1-0.8c0-2.2,1.8-4,4-4s4,1.8,4,4c0,0.2,0,0.5-0.1,0.7"/>
	<path class="st3" d="M119,24.7c-1.9-1.6-3-4.1-3-6.7c0-5,4-9,9-9s9,4,9,9c0,2.5-1,4.7-2.6,6.4"/>
	<path class="st3" d="M117.2,29.6c-3.7-2.5-6.2-6.8-6.2-11.6c0-7.7,6.3-14,14-14s14,6.3,14,14c0,4.8-2.4,9.1-6.2,11.6"/>
	<path class="st3" d="M139,47h-1.4c-1.5,0-2.9-1-3.4-2.4l-8.5-24c-0.2-0.6-1-0.6-1.2,0l-8.5,24c-0.5,1.4-1.9,2.4-3.4,2.4H111"/>
	<line class="st3" x1="123" y1="27" x2="129" y2="32"/>
	<line class="st3" x1="120" y1="35" x2="129" y2="32"/>
	<line class="st3" x1="120" y1="35" x2="133" y2="42"/>
	<line class="st3" x1="117" y1="43" x2="133" y2="42"/>
	<path class="st3" d="M10.9,39.1L10.9,39.1C7,35.2,7,28.9,10.9,25l12.4-12.4c0.6-0.6,1.5-0.6,2.1,0l12,12c0.6,0.6,0.6,1.5,0,2.1
		L25,39.1C21.2,43,14.8,43,10.9,39.1z"/>
	<polygon class="st5" points="26.5,13.7 32.1,8 42,17.9 36.4,23.6 	"/>
	<path class="st3" d="M15.2,29.2l2.1-2.1c0.8-0.8,2-0.8,2.8,0l0,0c0.8,0.8,0.8,2,0,2.8L18,32"/>
	<path class="st3" d="M18,32l2.1-2.1c0.8-0.8,2-0.8,2.8,0l0,0c0.8,0.8,0.8,2,0,2.8l-2.1,2.1"/>
	<line class="st3" x1="32.8" y1="12.9" x2="31.4" y2="14.4"/>
	<line class="st3" x1="37" y1="17.2" x2="35.6" y2="18.6"/>
	<polyline class="st3" points="28.6,21.4 24.4,17.2 21.5,20 	"/>
	<circle class="st3" cx="275" cy="25" r="18"/>
	<line class="st3" x1="288" y1="38" x2="292" y2="42"/>
	<polyline class="st3" points="265,27 270,27 273,18 277,32 280,23 285,23 	"/>
	<path class="st3" d="M272,12.3c-4.8,1.1-8.5,4.9-9.7,9.7"/>
	<circle class="st3" cx="275" cy="77" r="3"/>
	<line class="st3" x1="276.7" y1="73.9" x2="281" y2="66"/>
	<path class="st3" d="M266.6,90h16.8c3,0,5.8-1.5,7.2-4.1c1.8-3.1,2.6-6.7,2.3-10.6c-0.8-8.4-7.5-15.3-15.9-16.2
		c-10.9-1.2-20,7.3-20,17.9c0,3.1,0.8,6.1,2.2,8.6C260.7,88.3,263.5,90,266.6,90z"/>
	<line class="st3" x1="275" y1="62" x2="275" y2="59"/>
	<line class="st3" x1="257" y1="78" x2="260" y2="78"/>
	<line class="st3" x1="290" y1="78" x2="293" y2="78"/>
	<line class="st3" x1="285.6" y1="67.4" x2="287.7" y2="65.3"/>
	<line class="st3" x1="262.3" y1="65.3" x2="264.4" y2="67.4"/>
	<path class="st3" d="M266.9,82.9c-1.2-1.7-1.9-3.7-1.9-5.9c0-5.5,4.5-10,10-10"/>
	<circle class="st3" cx="25" cy="75" r="18"/>
	<path class="st3" d="M26.5,75H22v-5h4.5c1.4,0,2.5,1.1,2.5,2.5l0,0C29,73.9,27.9,75,26.5,75z"/>
	<line class="st3" x1="25" y1="68" x2="25" y2="69"/>
	<line class="st3" x1="25" y1="81" x2="25" y2="82"/>
	<circle class="st3" cx="25" cy="75" r="13"/>
	<path class="st3" d="M86.4,91H63.6c-3.1,0-5.6-2.5-5.6-5.6V64.6c0-3.1,2.5-5.6,5.6-5.6h22.7c3.1,0,5.6,2.5,5.6,5.6v20.7
		C92,88.5,89.5,91,86.4,91z"/>
	<line class="st3" x1="58" y1="67" x2="92" y2="67"/>
	<line class="st3" x1="63" y1="73" x2="66" y2="73"/>
	<line class="st3" x1="70" y1="73" x2="73" y2="73"/>
	<line class="st3" x1="77" y1="73" x2="80" y2="73"/>
	<line class="st3" x1="84" y1="73" x2="87" y2="73"/>
	<line class="st3" x1="63" y1="77" x2="66" y2="77"/>
	<line class="st3" x1="70" y1="77" x2="73" y2="77"/>
	<line class="st3" x1="77" y1="77" x2="80" y2="77"/>
	<line class="st3" x1="84" y1="77" x2="87" y2="77"/>
	<line class="st3" x1="63" y1="81" x2="66" y2="81"/>
	<line class="st3" x1="70" y1="81" x2="73" y2="81"/>
	<line class="st3" x1="77" y1="81" x2="80" y2="81"/>
	<line class="st3" x1="84" y1="81" x2="87" y2="81"/>
	<line class="st3" x1="63" y1="85" x2="66" y2="85"/>
	<line class="st3" x1="70" y1="85" x2="73" y2="85"/>
	<line class="st3" x1="77" y1="85" x2="80" y2="85"/>
	<line class="st3" x1="84" y1="85" x2="87" y2="85"/>
	<path class="st3" d="M26.5,80H22v-5h4.5c1.4,0,2.5,1.1,2.5,2.5l0,0C29,78.9,27.9,80,26.5,80z"/>
	<g>
		<path class="st3" d="M337.5,13.3c-2.3-1.1-4.8-1.9-7.4-2.3c-0.1,0-0.1,0-0.1,0.1c-0.3,0.6-0.7,1.3-0.9,1.9c-2.8-0.4-5.5-0.4-8.2,0
			c-0.3-0.6-0.6-1.3-0.9-1.9c0-0.1-0.1-0.1-0.1-0.1c-2.6,0.5-5,1.2-7.4,2.3c0,0-0.1,0-0.1,0.1c-4.7,7.1-5.9,14-5.3,20.9
			c0,0.1,0,0.1,0.1,0.1c3.1,2.3,6.1,3.7,9,4.6c0.1,0,0.1,0,0.1-0.1c0.7-1,1.3-2,1.8-3c0.1-0.1,0-0.2-0.1-0.2c-1-0.4-1.9-0.8-2.8-1.3
			c-0.1-0.1-0.1-0.2,0-0.2c0.2-0.2,0.4-0.3,0.6-0.5c0.1-0.1,0.1-0.1,0.1,0c5.9,2.7,12.3,2.7,18.1,0c0.1,0,0.1,0,0.1,0
			c0.2,0.2,0.4,0.3,0.6,0.5c0.1,0.1,0.1,0.2,0,0.2c-0.9,0.5-1.8,1-2.8,1.3c-0.1,0-0.1,0.1-0.1,0.2c0.6,1.1,1.2,2.1,1.8,3
			c0.1,0.1,0.1,0.1,0.1,0.1c2.9-0.9,5.9-2.3,9-4.6c0.1,0,0.1-0.1,0.1-0.1C343.6,26.3,341.6,19.5,337.5,13.3L337.5,13.3z"/>
	</g>
	<ellipse class="st4" cx="319" cy="26.3" rx="3.2" ry="3.7"/>
	<ellipse class="st4" cx="331" cy="26.3" rx="3.2" ry="3.7"/>
	<path class="st3" d="M125,85h-16V64.4c0-0.8,0.6-1.4,1.4-1.4h8.1c3.6,0,6.4,2.9,6.4,6.4L125,85L125,85z"/>
	<path class="st3" d="M141,85h-16V68c0-2.8,2.2-5,5-5h9.6c0.8,0,1.4,0.6,1.4,1.4V85z"/>
	<path class="st3" d="M114,75v-1.5c0-0.8,0.7-1.5,1.5-1.5l0,0c0.8,0,1.5,0.7,1.5,1.5V75"/>
	<path class="st3" d="M117,75v-1.5c0-0.8,0.7-1.5,1.5-1.5l0,0c0.8,0,1.5,0.7,1.5,1.5V75"/>
	<path class="st3" d="M125,89h-15.9c-2.3,0-4.1-1.8-4.1-4.1V68.4c0-0.8,0.6-1.4,1.4-1.4h2.3"/>
	<path class="st3" d="M125,89h15.9c2.3,0,4.1-1.8,4.1-4.1V68.4c0-0.8-0.6-1.4-1.4-1.4H141"/>
	<line class="st3" x1="131" y1="70" x2="135" y2="70"/>
	<line class="st3" x1="131" y1="74" x2="135" y2="74"/>
	<line class="st3" x1="131" y1="78" x2="135" y2="78"/>
	<path class="st3" d="M187.1,89H163c-2.2,0-3.9-1.8-3.9-3.9V64.9c0-2.2,1.8-3.9,3.9-3.9h24.1c2.2,0,3.9,1.8,3.9,3.9V85
		C191,87.2,189.2,89,187.1,89z"/>
	<line class="st3" x1="159" y1="69" x2="191" y2="69"/>
	<line class="st3" x1="163" y1="73" x2="166" y2="73"/>
	<line class="st3" x1="163" y1="77" x2="171" y2="77"/>
	<line class="st3" x1="163" y1="81" x2="167" y2="81"/>
	<line class="st3" x1="163" y1="85" x2="174" y2="85"/>
	<line class="st3" x1="170" y1="73" x2="181" y2="73"/>
	<line class="st3" x1="175" y1="77" x2="179" y2="77"/>
	<line class="st3" x1="171" y1="81" x2="183" y2="81"/>
	<line class="st3" x1="178" y1="85" x2="180" y2="85"/>
	<line class="st3" x1="163" y1="65" x2="166" y2="65"/>
	<path class="st3" d="M240.8,68.2l-2.5-4.4c-0.4-0.7-1.3-1-2-0.5l-2,1.2c-2.8,1.6-6.3-0.4-6.3-3.6v-2.3c0-0.8-0.7-1.5-1.5-1.5h-5
		c-0.8,0-1.5,0.7-1.5,1.5v2.3c0,3.2-3.5,5.3-6.3,3.6l-2-1.2c-0.7-0.4-1.6-0.2-2,0.5l-2.5,4.4c-0.4,0.7-0.2,1.6,0.5,2l2,1.2
		c2.8,1.6,2.8,5.7,0,7.3l-2,1.2c-0.7,0.4-1,1.3-0.5,2l2.5,4.4c0.4,0.7,1.3,1,2,0.5l2-1.2c2.8-1.6,6.3,0.4,6.3,3.6v2.3
		c0,0.8,0.7,1.5,1.5,1.5h5c0.8,0,1.5-0.7,1.5-1.5v-2.3c0-3.2,3.5-5.3,6.3-3.6l2,1.2c0.7,0.4,1.6,0.2,2-0.5l2.5-4.4
		c0.4-0.7,0.2-1.6-0.5-2l-2-1.2c-2.8-1.6-2.8-5.7,0-7.3l2-1.2C241,69.8,241.3,68.9,240.8,68.2z"/>
	<circle class="st3" cx="224" cy="75" r="6"/>
	<path class="st3" d="M336,84v0.9c0,1.7-1.4,3.1-3.1,3.1h-19.7c-1.7,0-3.1-1.4-3.1-3.1V57.1c0-1.7,1.4-3.1,3.1-3.1h19.7
		c1.7,0,3.1,1.4,3.1,3.1v2.7"/>
	<path class="st3" d="M341,84.1V88c0,2.8-2.2,5-5,5h-17.9c-1.7,0-3.1-1.4-3.1-3.1V89"/>
	<path class="st3" d="M337,57h0.9c1.7,0,3.1,1.4,3.1,3.1V60"/>
	<path class="st3" d="M342.3,80h-18.6c-0.9,0-1.7-0.8-1.7-1.7V65.7c0-0.9,0.8-1.7,1.7-1.7h18.6c0.9,0,1.7,0.8,1.7,1.7v12.6
		C344,79.2,343.2,80,342.3,80z"/>
	<line class="st3" x1="326" y1="68" x2="332" y2="68"/>
	<line class="st3" x1="326" y1="72" x2="328" y2="72"/>
	<line class="st3" x1="326" y1="76" x2="332" y2="76"/>
	<line class="st3" x1="336" y1="68" x2="338" y2="68"/>
	<line class="st3" x1="332" y1="72" x2="339" y2="72"/>
	<line class="st3" x1="336" y1="76" x2="340" y2="76"/>
	<path class="st3" d="M386,84v0.9c0,1.7-1.4,3.1-3.1,3.1h-19.7c-1.7,0-3.1-1.4-3.1-3.1V57.1c0-1.7,1.4-3.1,3.1-3.1h19.7
		c1.7,0,3.1,1.4,3.1,3.1v2.7"/>
	<path class="st3" d="M391,84.1V88c0,2.8-2.2,5-5,5h-17.9c-1.7,0-3.1-1.4-3.1-3.1V89"/>
	<path class="st3" d="M387,57h0.9c1.7,0,3.1,1.4,3.1,3.1V60"/>
	<path class="st3" d="M396.5,68.9l-1.1-1.9c-0.3-0.4-0.8-0.6-1.3-0.3l0,0c-1.4,0.8-3.1-0.2-3.1-1.8l0,0c0-0.5-0.4-0.9-0.9-0.9h-2.2
		c-0.5,0-0.9,0.4-0.9,0.9l0,0c0,1.6-1.7,2.6-3.1,1.8l0,0c-0.4-0.3-1-0.1-1.3,0.3l-1.1,1.9c-0.3,0.4-0.1,1,0.3,1.3l0,0
		c1.4,0.8,1.4,2.8,0,3.6l0,0c-0.4,0.3-0.6,0.8-0.3,1.3l1.1,1.9c0.3,0.4,0.8,0.6,1.3,0.3l0,0c1.4-0.8,3.1,0.2,3.1,1.8l0,0
		c0,0.5,0.4,0.9,0.9,0.9h2.2c0.5,0,0.9-0.4,0.9-0.9l0,0c0-1.6,1.7-2.6,3.1-1.8l0,0c0.4,0.3,1,0.1,1.3-0.3l1.1-1.9
		c0.3-0.4,0.1-1-0.3-1.3l0,0c-1.4-0.8-1.4-2.8,0-3.6l0,0C396.6,69.9,396.7,69.4,396.5,68.9z"/>
	<circle class="st3" cx="389" cy="72" r="2"/>
	<path class="st3" d="M386,20.3v-2.9c0-6.1-4.7-11.3-10.8-11.4C369,5.9,364,10.9,364,17v3.3c0,4.1-2.3,7.9-6,9.7l0,0
		c0,4.4,3.6,8,8,8h18c4.4,0,8-3.6,8-8l0,0C388.3,28.2,386,24.4,386,20.3z"/>
	<path class="st3" d="M381,38.5c0,3-2.5,5.5-5.5,5.5s-5.5-2.5-5.5-5.5"/>
	<path class="st3" d="M369,17c0-3.3,2.7-6,6-6"/>
	<line class="st3" x1="415" y1="19" x2="415" y2="21.9"/>
	<path class="st3" d="M439,11.8v-0.1c0-2.6-2.1-4.7-4.7-4.7H432c0,2.8-2.2,5-5,5s-5-2.2-5-5h-2.3c-2.6,0-4.7,2.1-4.7,4.7V12"/>
	<path class="st3" d="M415,38.1v0.2c0,2.6,2.1,4.7,4.7,4.7h14.5c2.6,0,4.7-2.1,4.7-4.7V38"/>
	<path class="st3" d="M416.2,18h-2.4c-1,0-1.8-0.8-1.8-1.8v-2.4c0-1,0.8-1.8,1.8-1.8h2.4c1,0,1.8,0.8,1.8,1.8v2.4
		C418,17.2,417.2,18,416.2,18z"/>
	<path class="st3" d="M416.2,28h-2.4c-1,0-1.8-0.8-1.8-1.8v-2.4c0-1,0.8-1.8,1.8-1.8h2.4c1,0,1.8,0.8,1.8,1.8v2.4
		C418,27.2,417.2,28,416.2,28z"/>
	<path class="st3" d="M416.2,38h-2.4c-1,0-1.8-0.8-1.8-1.8v-2.4c0-1,0.8-1.8,1.8-1.8h2.4c1,0,1.8,0.8,1.8,1.8v2.4
		C418,37.2,417.2,38,416.2,38z"/>
	<line class="st3" x1="415" y1="29" x2="415" y2="31.9"/>
	<line class="st3" x1="439" y1="19" x2="439" y2="21.9"/>
	<path class="st3" d="M440.2,18h-2.4c-1,0-1.8-0.8-1.8-1.8v-2.4c0-1,0.8-1.8,1.8-1.8h2.4c1,0,1.8,0.8,1.8,1.8v2.4
		C442,17.2,441.2,18,440.2,18z"/>
	<path class="st3" d="M440.2,28h-2.4c-1,0-1.8-0.8-1.8-1.8v-2.4c0-1,0.8-1.8,1.8-1.8h2.4c1,0,1.8,0.8,1.8,1.8v2.4
		C442,27.2,441.2,28,440.2,28z"/>
	<path class="st3" d="M440.2,38h-2.4c-1,0-1.8-0.8-1.8-1.8v-2.4c0-1,0.8-1.8,1.8-1.8h2.4c1,0,1.8,0.8,1.8,1.8v2.4
		C442,37.2,441.2,38,440.2,38z"/>
	<line class="st3" x1="439" y1="29" x2="439" y2="31.9"/>
	<line class="st3" x1="431" y1="17" x2="423" y2="17"/>
	<line class="st3" x1="431" y1="21" x2="423" y2="21"/>
	<line class="st3" x1="431" y1="25" x2="423" y2="25"/>
	<line class="st3" x1="431" y1="29" x2="423" y2="29"/>
	<line class="st3" x1="431" y1="33" x2="423" y2="33"/>
	<line class="st3" x1="431" y1="37" x2="423" y2="37"/>
	<polygon class="st3" points="411,60 439,60 439,88 430,79 430,69 420,69 	"/>
	<polygon class="st3" points="411,78 411,88 421,88 430,79 420,79 420,69 	"/>
	<path class="st3" d="M470,66v-1.6c0-0.8,0.6-1.4,1.4-1.4h21.1c0.8,0,1.4,0.6,1.4,1.4v21.1c0,0.8-0.6,1.4-1.4,1.4h-21.1
		c-0.8,0-1.4-0.6-1.4-1.4V83"/>
	<path class="st3" d="M485,75c0,0-6.7,8-15,8s-15-8-15-8s5.7-8,14-8c7,0,11,6,11,6"/>
	<path class="st3" d="M470,79c6,0,10-6,10-6"/>
	<path class="st3" d="M470,79c-5,0-8-4-8-4"/>
	<path class="st3" d="M469,71c-4,0-7,4-7,4"/>
	<path class="st3" d="M469,71c4,0,5,3,5,3"/>
</g>
</svg>
