<?xml version="1.0" encoding="utf-8"?>
<!-- Generator: Adobe Illustrator 26.2.1, SVG Export Plug-In . SVG Version: 6.00 Build 0)  -->
<svg version="1.1" id="Layer_1" xmlns="http://www.w3.org/2000/svg" xmlns:xlink="http://www.w3.org/1999/xlink" x="0px" y="0px"
	 width="100px" height="40px" viewBox="0 0 100 40" style="enable-background:new 0 0 100 40;" xml:space="preserve">
<style type="text/css">
	.st0{fill:none;stroke:#989BA4;stroke-width:2;stroke-linecap:round;stroke-linejoin:round;stroke-miterlimit:10;}
</style>
<path class="st0" d="M13,10c1.2-0.9,2-2.4,2-4c0-2.8-2.2-5-5-5v5.6"/>
<path class="st0" d="M7,10c-1.2,0.9-2,2.4-2,4c0,2.8,2.2,5,5,5v-6"/>
<path class="st0" d="M10,13c0.9,1.2,2.4,2,4,2c2.8,0,5-2.2,5-5h-6"/>
<path class="st0" d="M10,7C9.1,5.8,7.6,5,6,5c-2.8,0-5,2.2-5,5h6"/>
<circle class="st0" cx="10" cy="10" r="3"/>
<path class="st0" d="M33,10V4c0-1.7-1.3-3-3-3l0,0c-1.7,0-3,1.3-3,3v6c-1.4,1.1-2.3,2.9-1.9,4.9c0.4,1.9,1.9,3.6,3.8,4
	c3.2,0.7,6.1-1.8,6.1-4.9C35,12.4,34.2,10.9,33,10z"/>
<line class="st0" x1="29" y1="5" x2="27" y2="5"/>
<circle class="st0" cx="30" cy="14" r="1"/>
<line class="st0" x1="30" y1="8" x2="30" y2="14"/>
<path class="st0" d="M50,15L50,15c-3.3,0-6-2.7-6-6V5.3C44,4.6,44.6,4,45.3,4h9.4C55.4,4,56,4.6,56,5.3V9C55.9,12.3,53.2,15,50,15z"
	/>
<line class="st0" x1="47" y1="1" x2="47" y2="4"/>
<line class="st0" x1="52.9" y1="1" x2="52.9" y2="4"/>
<line class="st0" x1="45" y1="8" x2="54.9" y2="8"/>
<line class="st0" x1="50" y1="15" x2="50" y2="19"/>
<path class="st0" d="M17.6,26.5L13.1,31l-4.2-4.2l4.5-4.5c-2.4-0.8-5.2-0.3-7.1,1.4c-2.1,2-2.7,4.9-1.8,7.5l-1.9,1.9
	c-1.2,1.2-1.2,3.1,0,4.2s3.1,1.2,4.2,0l1.9-1.9c2.5,0.9,5.3,0.3,7.3-1.6S18.5,29,17.6,26.5z"/>
</svg>
